<?xml version="1.0" encoding="UTF-8"?>
<!DOCTYPE svg PUBLIC "-//W3C//DTD SVG 1.0//EN" "http://www.w3.org/TR/2001/REC-SVG-20010904/DTD/svg10.dtd">
<!-- Creator: CorelDRAW X7 -->
<svg xmlns="http://www.w3.org/2000/svg" xml:space="preserve" width="210mm" height="297mm" version="1.0" style="shape-rendering:geometricPrecision; text-rendering:geometricPrecision; image-rendering:optimizeQuality; fill-rule:evenodd; clip-rule:evenodd"
viewBox="0 0 21000 29700"
 xmlns:xlink="http://www.w3.org/1999/xlink">
 <defs>
  <style type="text/css">
   <![CDATA[
    .str0 {stroke:#2B2A29;stroke-width:7.62}
    .fil0 {fill:#2B2A29}
   ]]>
  </style>
 </defs>
 <g id="Layer_x0020_1">
  <metadata id="CorelCorpID_0Corel-Layer"/>
  <path class="fil0 str0" d="M2170 11491c22,-31 140,7 140,134 -53,27 -191,-67 -140,-134zm16660 6718c-22,31 -140,-7 -140,-134 53,-27 191,67 140,134zm566 556l-158 0 0 -158 158 0 0 158zm-285 -275l-124 0 0 -124 124 0 0 124zm-8 -746c10,7 10,9 9,29 1,155 -1,300 -1,448l-126 0 0 -266c5,-61 64,-186 118,-211zm-271 636l-1 112 -474 0c2,-46 145,-126 184,-126l282 0 9 0 0 14zm402 -1076c-57,26 -332,450 -373,525 -41,76 -17,89 -79,78 -54,-10 -255,-29 -287,-9 -32,19 6,214 16,264 6,32 -10,32 -32,47 -46,13 -532,367 -509,398l884 0 0 158 -1400 0 -15308 0 0 -158 884 0c23,-31 -463,-385 -509,-398 -22,-15 -38,-15 -32,-47 10,-50 48,-245 16,-264 -32,-20 -233,-1 -287,9 -62,11 -38,-2 -79,-78 -41,-75 -316,-499 -372,-525l0 590c0,44 0,89 0,132l0 195 -129 0 0 -798c0,-158 -1,-298 -1,-371l0 -173c0,-7 1,-12 0,-17 0,-1687 1,-4433 1,-4585l0 -798 129 0 0 195c0,43 0,88 0,132l0 590c56,-26 331,-450 372,-525 41,-76 17,-89 79,-78 54,10 255,29 287,9 32,-19 -6,-214 -16,-264 -6,-32 10,-32 32,-47 46,-13 532,-367 509,-398l-884 0 0 -158 1400 0 15308 0 0 158 -884 0c-23,31 463,385 509,398 22,15 38,15 32,47 -10,50 -48,245 -16,264 32,20 233,1 287,-9 62,-11 38,2 79,78 41,75 316,499 373,525l0 -590c-1,-44 -1,-89 0,-132l0 -195 128 0 0 798c1,214 2,4333 2,4584 -2,7 -1,12 0,22l0 1 0 26 0 0c0,4 0,8 0,11l0 14 0 0 0 1 0 0 0 1 0 0 0 14c0,3 0,7 0,10l0 1 0 26 0 1c-1,10 -2,15 0,22 -1,48 -1,216 -2,412l0 798 -128 0 0 -195c-1,-43 -1,-88 0,-132l0 -590zm-1780 1572l0 1 123 -1 1366 1 0 -5 43 0 0 -265 132 0 0 270c6,3 16,2 21,2l358 -2c2,-1 3,-3 4,-5l0 -382 -261 0 0 -13c-1,-2 -1,-5 0,-9l0 -102 56 0c31,-1 64,-1 97,0l101 0c4,-1 6,-3 7,-5l0 -1340 0 -170 0 -5512c-1,-2 -3,-4 -7,-5l-101 0c-33,1 -66,1 -97,0l-56 0 0 -102c-1,-4 -1,-7 0,-9l0 -13 261 0 0 -382c-1,-2 -2,-4 -4,-5l-358 -2c-5,0 -15,-1 -21,2l0 270 -132 0 0 -265 -15440 -4 0 -1 -123 1 -1366 -1 0 5 -43 0 0 265 -132 0 0 -270c-6,-3 -16,-2 -21,-2l-358 2c-2,1 -3,3 -4,5l0 382 261 0 0 13c1,2 1,5 0,9l0 102 -56 0c-31,1 -64,1 -97,0l-101 0c-4,1 -6,3 -7,5l0 5512 0 1461 0 49c1,2 3,4 7,5l101 0c33,-1 66,-1 97,0l56 0 0 102c1,4 1,7 0,9l0 13 -261 0 0 382c1,2 2,4 4,5l358 2c5,0 15,1 21,-2l0 -270 132 0 0 265 15440 4zm1376 -7385c-22,-31 -140,7 -140,134 53,27 191,-67 140,-134zm566 -556l-158 0 0 158 158 0 0 -158zm-285 275l-124 0 0 124 124 0 0 -124zm-8 746c10,-7 10,-9 9,-29 1,-155 -1,-300 -1,-448l-126 0 0 266c5,61 64,186 118,211zm-271 -636l-1 -112 -474 0c2,46 145,126 184,126l282 0 9 0 0 -14zm-16662 6889c22,31 140,-7 140,-134 -53,-27 -191,67 -140,134zm-566 556l158 0 0 -158 -158 0 0 158zm285 -275l124 0 0 -124 -124 0 0 124zm8 -746c-10,7 -10,9 -9,29 -1,155 1,300 1,448l126 0 0 -266c-5,-61 -64,-186 -118,-211zm271 636l1 112 474 0c-2,-46 -145,-126 -184,-126l-282 0 -9 0 0 14zm-564 -7445l158 0 0 158 -158 0 0 -158zm285 275l124 0 0 124 -124 0 0 -124zm8 746c-10,-7 -10,-9 -9,-29 -1,-155 1,-300 1,-448l126 0 0 266c-5,61 -64,186 -118,211zm271 -636l1 -112 474 0c-2,46 -145,126 -184,126l-282 0 -9 0 0 -14z"/>
 </g>
</svg>
