<?xml version="1.0" encoding="UTF-8"?>
<!DOCTYPE svg PUBLIC "-//W3C//DTD SVG 1.1//EN" "http://www.w3.org/Graphics/SVG/1.1/DTD/svg11.dtd">
<!-- Creator: CorelDRAW X7 -->
<svg xmlns="http://www.w3.org/2000/svg" xml:space="preserve" width="177.8mm" height="177.8mm" version="1.1" style="shape-rendering:geometricPrecision; text-rendering:geometricPrecision; image-rendering:optimizeQuality; fill-rule:evenodd; clip-rule:evenodd"
viewBox="0 0 17780 17780"
 xmlns:xlink="http://www.w3.org/1999/xlink">
 <defs>
  <style type="text/css">
   <![CDATA[
    .str0 {stroke:#2B2A29;stroke-width:7.62}
    .fil0 {fill:#2B2A29}
   ]]>
  </style>
 </defs>
 <g id="Layer_x0020_1">
  <metadata id="CorelCorpID_0Corel-Layer"/>
  <g id="_2750705761776">
   <path class="fil0 str0" d="M5594 14112c0,-379 463,-470 658,-243 323,375 -263,820 -554,498 -42,-47 -104,-178 -104,-255zm3228 -12715l14 0c731,0 1439,376 1993,748 162,-109 247,-250 471,-250 258,0 293,122 443,222 93,-22 125,-56 203,-102 51,-31 65,-38 107,-60 1133,-605 2516,-488 3557,228 175,121 302,239 448,384 424,425 757,984 891,1602 360,1657 -447,2435 -524,2768 217,325 354,357 55,803 68,129 155,215 231,352 379,686 434,980 434,1781 0,828 -661,1722 -1429,1978 -380,127 -182,14 -295,564 -177,859 -526,1646 -1065,2315 -1046,1296 -2517,1653 -4272,1653l-4 0c-1568,0 -3072,-530 -3905,-1773 -668,156 -611,-295 -836,-548 -73,-81 -100,-125 -182,-207 -511,-508 -949,-253 -949,-574 0,-248 271,-450 439,-586 407,-328 1061,172 1299,455 55,65 109,154 155,232 55,93 72,178 137,252 69,78 136,104 191,197 203,342 10,495 -143,724 468,699 1348,1288 2277,1518 270,67 493,111 796,146 157,19 722,68 884,49 269,-30 618,-36 872,-70 829,-111 1658,-294 2311,-764l388 -304c811,-751 1530,-2052 1530,-3179l-360 0c-669,0 -1221,-401 -1432,-867 -125,-278 -143,-647 -10,-907 379,-744 1716,-504 1926,847 39,250 43,480 43,761 425,-99 862,-408 1075,-725 311,-464 448,-962 448,-1547 0,-388 -334,-1440 -665,-1662 -484,325 -492,144 -831,-83 -127,67 -232,150 -369,213 -1039,482 -2247,462 -3231,-103 -1685,-969 -2221,-3159 -1053,-4902 -89,-133 -222,-190 -222,-416 0,-155 50,-190 83,-332 -151,-80 -270,-176 -434,-259 -924,-469 -1834,-638 -2823,-228 -205,84 -400,214 -560,354l-517 480c-4,4 -11,9 -15,13l-45 38c-37,31 -40,35 -73,66 -971,933 -2224,64 -3638,461 -244,69 -516,199 -693,333 -205,155 -357,308 -491,533 -121,203 -240,448 -240,757 616,52 468,679 477,769 30,320 204,725 460,926 106,83 254,121 254,300 0,206 -464,352 -664,389 -312,57 -474,-86 -650,-321 -261,-347 -361,-713 -359,-1153 1,-165 -285,-540 133,-816 319,-210 148,67 265,-399 30,-123 66,-215 120,-323 447,-888 1233,-1168 2237,-1255 200,-17 595,35 818,66 274,38 513,72 815,72 570,0 900,-247 1239,-589 296,-297 642,-622 1032,-796 512,-228 876,-249 1428,-249zm-3312 12299l0 0zm0 0l-27 -28 27 28zm-27 -28l-28 -27 28 27zm-28 -27l-28 -28 28 28zm-28 -28l-27 -28 27 28zm-27 -28l-28 -27 28 27zm581 -55l9 8c-1,0 -11,-5 -9,-8zm-609 28l-28 -28 28 28zm-28 -28l-27 -28 27 28zm610 -55l0 0zm0 0l-28 -28 28 28zm-637 27c-80,-19 -42,4 -84,-55 79,19 42,-4 84,55zm581 -111l28 56 -28 -56zm-665 56l-27 -28 27 28zm665 -56l-27 -27 27 27zm-526 -27c91,24 95,52 160,117 65,64 93,69 117,160l-277 -277zm0 0l-28 -28 28 28zm-997 -111c219,0 519,139 664,222l370 298c34,38 30,25 44,61 31,79 18,85 -31,50 -42,-30 -118,-173 -398,-366 -139,-96 -434,-205 -649,-210l0 -55zm1385 -28c70,48 86,48 111,139 -71,-48 -87,-48 -111,-139zm-416 111c-97,-26 -62,-10 -111,-83 97,26 63,10 111,83zm-111 -83l-55 -28 55 28zm527 -28l-28 -27 28 27zm-582 0l-28 -27 28 27zm-28 -27l-55 -28 55 28zm56 221c-73,-19 -177,-89 -258,-129 -59,-30 -83,-41 -134,-60l-135 -60c172,4 458,147 527,249zm-527 -249l-165 -29c-71,-26 -26,-7 -56,-27l169 25c39,16 32,16 52,31zm416 0c-69,-16 -30,-2 -83,-28 -45,-21 -52,-28 -83,-55 111,9 117,16 166,83zm-166 -83c-153,-13 -194,-80 -360,-83 58,-80 81,-58 182,-19 78,30 136,45 178,102zm-166 -250c250,21 993,423 1080,748 -111,-29 -166,-124 -243,-200 -346,-349 -745,-467 -837,-548zm969 361c-114,-31 -196,-198 -566,-349l-192 -84c-4,-3 -12,-7 -18,-11 142,3 342,113 444,166 117,60 262,173 332,278zm7840 -2577c0,-235 44,-366 173,-519 370,-438 1627,-240 1627,1267l0 443c-128,3 -99,28 -277,28 -803,0 -1523,-507 -1523,-1219zm2133 -2964c13,-19 578,-560 609,-581 327,219 100,537 -146,713 -182,130 -375,1 -463,-132zm-14267 -720l0 0zm0 0l-27 -28 27 28zm-27 -28l-28 -27 28 27zm194 -277c55,38 317,265 277,305 -40,40 -251,-204 -277,-305zm0 0l-28 -27 28 27zm-28 -27l0 0zm138 -83l275 251c58,50 62,20 85,109 -112,-76 -322,-220 -360,-360zm-194 0l0 0zm0 0l0 0zm-55 -84l0 0zm-28 -55l28 55 -28 -55zm-27 -55l27 55 -27 -55zm138 -56c61,45 144,166 166,250 -75,-51 -142,-147 -166,-250zm-166 0l28 56 -28 -56zm138 -55l28 55 -28 -55zm0 0l-31 -54 31 54zm-193 -83c49,57 47,41 55,138 -50,-57 -47,-41 -55,-138zm-388 -28l45 93c194,489 369,575 398,683 -122,-82 -201,-196 -283,-327 -58,-92 -157,-312 -160,-449zm526 0l8 8c0,0 -11,-5 -8,-8zm-554 -138c19,29 16,0 25,57 4,25 3,55 3,81 -19,-30 -16,-1 -26,-58 -4,-25 -2,-55 -2,-80zm526 83c0,-71 44,-5 17,0 -1,0 -17,77 -17,0zm-110 83c-67,-77 -84,-147 -84,-277l84 277zm-416 -166c-33,-52 -31,61 -23,-56 4,-59 4,-25 23,-55l0 111zm609 -250c108,79 22,53 126,317 217,552 478,561 595,736 -115,-10 -73,-11 -149,-73 -275,-225 -572,-590 -572,-980zm-415 139c4,179 154,496 233,626 25,41 52,77 77,116 35,57 43,82 86,136 60,76 162,167 186,257 -251,-168 -555,-642 -634,-1007 -26,-116 -57,-116 52,-128zm277 -28l8 8c0,0 -11,-5 -8,-8zm-194 -138c-408,0 -525,-540 -180,-707 148,-71 302,-37 410,61 295,266 19,646 -230,646zm12632 2465c-836,0 -1355,-111 -2011,-565 -741,-512 -1369,-1485 -1369,-2399 0,-816 23,-1176 445,-1910 480,-836 1595,-1553 2575,-1553 850,0 1401,132 2077,610l377 316c308,322 470,544 667,967 561,1203 275,2630 -621,3572l-418 357c-444,326 -1118,605 -1722,605zm-2826 -5346c-432,-290 87,-748 333,-748 125,0 218,98 277,166 -35,47 -321,265 -465,422 -55,61 -79,116 -145,160z"/>
   <path class="fil0 str0" d="M14458 7574c0,-258 19,-277 277,-277 209,0 174,443 -28,443 -107,0 -249,-63 -249,-166zm-1607 -166c0,487 -645,152 -381,-131 120,-129 381,-92 381,131zm554 -582c0,-168 28,-202 28,-360 526,0 443,-77 443,360 0,644 -142,748 -194,942 -117,-10 -131,-48 -167,-137 -67,-162 -110,-608 -110,-805zm637 -388c110,-25 217,-63 305,-110 82,171 189,559 139,775 -174,-14 -304,-313 -369,-462 -29,-69 -48,-142 -75,-203zm-1218 499c-48,-205 32,-473 110,-637 63,14 218,82 277,111 -9,114 -181,509 -387,526zm1717 -720c115,-77 228,-207 332,-277 394,263 994,1136 748,1136 -223,0 -518,-297 -660,-421 -131,-115 -330,-304 -420,-438zm-2964 803c-219,0 192,-562 325,-700 88,-91 160,-159 249,-249 68,-68 199,-191 285,-214 114,76 126,209 277,249 -63,234 -862,914 -1136,914zm4377 -969c0,-291 443,-340 443,-28l0 28c0,295 -443,260 -443,0zm-4792 83c-122,0 -222,-91 -222,-250 0,-299 443,-252 443,0 0,124 -112,250 -221,250zm3933 -665c109,2 112,21 186,63 905,510 -11,365 -297,214 43,-81 102,-169 111,-277zm-3463 249c45,-166 419,-350 582,-388 13,152 72,170 83,305 -152,73 -484,170 -665,83zm3823 -305l-59 -15 59 15zm388 -193c-815,0 -637,130 -637,-444 316,0 69,-53 530,-4 186,20 680,6 827,226 -87,130 -133,127 -304,167 -129,30 -254,55 -416,55zm-2216 -1607c1019,0 1669,897 1299,1880 -303,804 -1507,1129 -2207,413 -353,-361 -513,-972 -274,-1481 146,-312 329,-529 645,-684 143,-70 336,-128 537,-128zm-2909 1357c93,-347 1238,-221 1441,-221l0 415c-345,80 -1280,26 -1441,-194zm4460 -388c-53,-99 -87,-207 -138,-304 174,-84 400,-139 637,-139 106,0 10,-8 83,28 -53,197 -406,323 -582,415zm-3435 -554c248,0 375,118 582,167 -3,112 -7,92 -45,176 -27,61 -41,105 -66,156 -47,-25 -802,-499 -471,-499zm4239 -27c0,-298 443,-298 443,0 0,302 -443,302 -443,0zm-804 27l0 0zm-4210 -221c0,-290 443,-310 443,0 0,297 -443,297 -443,0zm1828 -748c0,-64 9,-32 28,-111 190,45 345,372 387,554 -67,36 -213,103 -304,111 -12,-136 -111,-283 -111,-554zm997 388l-388 0 -27 -527c0,-247 39,-634 124,-845 42,-102 60,-142 180,-152 22,81 40,77 74,175 32,89 34,123 50,228 53,351 66,781 -13,1121zm610 138c-152,-12 -170,-72 -305,-83 27,-115 208,-537 415,-554 11,133 21,153 -11,321 -19,103 -64,241 -99,316zm498 443c-2,-1 -303,-303 -305,-304 114,-169 789,-804 1025,-804l111 0c0,289 -258,533 -403,705 -3,5 -9,11 -12,16l-416 387zm-3324 -1163c86,-18 77,-24 174,17 161,68 352,213 483,324 155,130 397,382 506,545 -76,105 -90,26 -277,305 -282,-189 -886,-790 -886,-1191zm3047 -55l-59 -16 59 16zm-2022 -56c-293,0 -299,-460 0,-460 293,-1 289,460 0,460zm2050 -582c246,0 345,444 -28,444 -279,0 -284,-444 28,-444zm803 3241c408,0 1192,-55 1269,-340 112,-411 -767,-491 -1130,-491 85,-116 259,-135 304,-304 492,329 794,-108 675,-425 -24,-62 -98,-154 -147,-186 -159,-104 -577,-104 -611,306 -515,0 -472,52 -637,55 121,-180 935,-840 685,-1210 -258,-382 -1131,519 -1211,573 58,-248 80,-378 -28,-581 70,-34 360,-36 411,-339 87,-509 -644,-645 -774,-189 -73,256 84,378 225,500 -199,4 -268,132 -372,293 -20,32 -27,45 -42,68l-57 82c0,-474 16,-1374 -313,-1463 -453,-122 -491,851 -491,1269 -87,-59 -87,-84 -154,-150 -4,-4 -10,-10 -14,-14l-136 -85c271,-514 -192,-750 -480,-619 -356,163 -271,757 203,757 0,289 25,318 27,444 -95,-64 -153,-150 -242,-229 -54,-47 -70,-50 -124,-98 -157,-137 -555,-466 -786,-327 -403,241 379,1018 488,1180 -134,-11 -276,-67 -416,0 0,-646 -588,-549 -739,-268 -100,186 -9,415 116,503 208,144 387,62 540,-41 17,207 275,349 415,471 -434,0 -1256,5 -1348,317 -131,446 760,486 1155,486 -99,147 -58,-10 -250,277 -151,-101 -279,-209 -498,-83 -131,75 -273,265 -176,508 133,337 757,339 757,-176 442,103 154,34 554,0 -1146,996 -871,1689 28,1053 115,-81 166,-136 270,-228l284 -243c-45,193 -76,345 -28,554 -495,41 -551,622 -160,771 284,107 769,-151 410,-688 206,-48 199,-187 332,-277 0,384 37,1084 362,1112 226,19 307,-219 353,-369 58,-191 88,-418 88,-660 124,143 112,203 305,333 -30,129 -163,263 -2,501 227,334 809,123 709,-320 -46,-202 -185,-276 -374,-320 0,-433 -36,-284 -56,-526 117,78 819,888 1147,620 276,-225 -198,-771 -320,-921 -72,-89 -164,-173 -217,-253 274,64 301,59 554,0 0,684 1009,408 757,-147 -42,-90 -91,-141 -173,-188 -277,-157 -454,63 -529,113 -166,-313 -161,-191 -388,-388z"/>
   <path class="fil0 str0" d="M2823 11009l-193 -28 0 -581c339,0 554,-54 554,332 0,180 -178,277 -361,277zm-193 -859l0 -471c184,0 526,-34 526,250 0,279 -370,234 -526,221zm-444 -609l0 138 166 0 0 1330 -166 0 0 194c422,0 935,73 1144,-131 132,-129 131,-252 131,-423 0,-211 -112,-265 -194,-388 53,-79 166,-167 166,-304 0,-614 -679,-499 -1164,-499 -63,0 -83,19 -83,83z"/>
   <path class="fil0 str0" d="M12574 4970c0,-323 125,-592 293,-759 774,-772 1923,-171 1923,732 0,628 -555,1108 -969,1108 -331,0 -617,-11 -898,-293 -201,-201 -349,-490 -349,-788zm-166 -111c0,461 62,685 395,1019 621,624 1634,398 1997,-316 367,-722 62,-1478 -619,-1783 -459,-206 -1030,-93 -1365,242 -211,212 -408,503 -408,838z"/>
   <path class="fil0 str0" d="M3765 7657c270,0 443,-39 443,277 0,275 -225,222 -498,222 0,-335 -88,-499 55,-499zm-498 -166c0,167 -8,163 138,166l28 444c0,322 -28,539 -28,858l-138 0 0 222 581 0 0 -222 -138 0 0 -388c0,-128 -66,-78 1,-145 71,-72 103,0 133,36l165 253c60,90 107,160 166,250 161,243 96,216 394,216 94,0 83,-49 83,-139 0,-176 -85,70 -304,-278 -97,-155 -214,-279 -223,-386 101,-9 204,-73 255,-134 152,-180 259,-836 -532,-836 -363,0 -581,-54 -581,83z"/>
   <path class="fil0 str0" d="M6757 10594c0,-567 831,-554 831,0 0,120 -45,216 -105,282 -238,260 -726,120 -726,-282zm609 -1136c0,127 20,111 194,111l0 471c-283,-150 -617,-175 -852,61 -456,456 -101,1310 653,1124 99,-25 116,-55 199,-77 45,109 168,83 333,83 94,0 83,-49 83,-139 0,-92 -50,-81 -139,-83l0 -1551c0,-121 -117,-83 -387,-83 -64,0 -84,19 -84,83z"/>
   <path class="fil0 str0" d="M8530 7408c0,116 19,108 138,111l0 1496 -138 0c0,211 -49,166 554,166l0 -166 -139 0c0,-531 -107,-914 333,-914 316,0 221,373 221,914l-138 0c0,206 -42,166 471,166 98,0 83,-54 83,-166l-139 0c0,-683 114,-1136 -554,-1136 -165,0 -165,53 -277,83 0,-120 -1,-241 1,-361 4,-311 50,-276 -333,-276 -64,0 -83,19 -83,83z"/>
   <path class="fil0 str0" d="M8087 9458c0,155 166,11 166,166l0 1413c-102,0 -228,-27 -111,194 109,-3 122,-28 332,-28 97,0 194,60 194,-83 0,-155 -166,-11 -166,-166 0,-489 -77,-804 360,-804 307,0 222,445 222,887 -112,0 -166,-16 -166,83 0,137 69,83 332,83 172,0 71,42 249,0l0 -138c-65,-32 -101,-25 -166,-56 0,-181 21,-615 -10,-765 -58,-277 -397,-427 -692,-292 -159,73 -129,163 -129,-577 -286,0 -415,-40 -415,83z"/>
   <path class="fil0 str0" d="M12796 4970c0,-1007 1345,-1186 1690,-388 332,767 -424,1494 -1173,1173 -293,-125 -517,-483 -517,-785zm-166 -27c0,578 492,1052 969,1052 347,0 590,-51 831,-304 76,-80 142,-172 195,-276 356,-698 -205,-1497 -832,-1497 -274,0 -354,-22 -592,100 -335,172 -571,510 -571,925z"/>
   <path class="fil0 str0" d="M6037 7408c0,122 19,111 166,111l0 1413c0,98 -54,83 -166,83l0 166c363,0 581,53 581,-83 0,-99 -53,-83 -166,-83l0 -416c123,83 537,582 637,582l222 0 0 -166c-131,-3 -118,-16 -188,-89 -56,-58 -94,-96 -151,-154 -146,-145 -260,-213 -270,-339 58,-21 26,-6 69,-42 94,-79 189,-259 332,-304 84,-27 153,5 153,-97 0,-133 -186,-83 -527,-83 -94,0 -172,161 56,166l-326 339 -5 -867c4,-252 36,-220 -334,-220 -64,0 -83,19 -83,83z"/>
   <path class="fil0 str0" d="M9804 10788c0,-166 275,-310 520,-160 172,105 99,381 -132,381 -99,0 -388,34 -388,-221zm-111 -748c9,104 40,129 83,194 306,-162 657,-175 665,193 -113,-26 -180,-83 -332,-83 -812,0 -624,1048 113,891 346,-73 120,-26 331,-9 103,8 63,-23 193,-23 91,0 139,81 139,-83 0,-99 -54,-83 -167,-83 0,-478 105,-1136 -581,-1136 -163,0 -336,82 -444,139z"/>
   <path class="fil0 str0" d="M4208 11009c-181,0 -360,10 -360,-221 0,-157 131,-222 277,-222 457,0 380,443 83,443zm-498 -969c8,101 39,111 83,194 21,-5 665,-354 665,221 -405,-271 -859,-15 -859,333 0,424 421,521 807,392 70,-24 51,1 150,31 383,113 345,-68 345,-174l-166 0c0,-383 67,-811 -165,-998 -263,-212 -600,-137 -860,1z"/>
   <path class="fil0 str0" d="M5233 8987c-208,0 -304,-68 -304,-277 0,-235 609,-255 609,55 0,63 -47,127 -92,157 -29,19 -182,65 -213,65zm-443 -970c26,109 31,113 111,167 9,-3 637,-337 637,221 -226,-119 -548,-168 -756,75 -290,338 67,884 641,693 59,-19 11,-16 78,-27 55,-9 508,136 508,-48 0,-121 -91,-62 -194,-111 0,-555 153,-1108 -609,-1108 -202,0 -296,58 -416,138z"/>
   <path class="fil0 str0" d="M10247 8765c0,-323 610,-281 610,-27 0,342 -610,307 -610,27zm-138 -748c21,78 55,126 111,167 98,-27 202,-144 416,-86 167,44 244,102 249,307 -125,-33 -134,-129 -470,-84 -181,25 -300,107 -363,250 -182,416 241,751 690,602 124,-41 55,-43 161,-13 91,27 425,83 425,-62 0,-121 -91,-62 -194,-111 0,-209 38,-613 -18,-785l-180 -236c-209,-146 -590,-107 -827,51z"/>
   <path class="fil0 str0" d="M11439 10012c-238,-86 -35,-55 -471,-55 0,424 166,-176 166,498 0,185 -56,438 0,554 -115,55 -166,-15 -166,139 0,137 109,55 387,55 92,0 146,65 184,-40 32,-88 -28,-112 -74,-123 -22,-5 -59,-3 -82,-3 0,-552 -105,-887 360,-887 291,0 222,466 222,804 0,111 -75,67 -166,111l0 138c94,22 264,0 387,0 146,0 167,110 167,-166l-139 0c0,-382 66,-828 -130,-1006 -171,-155 -527,-181 -645,-19z"/>
   <path class="fil0 str0" d="M5012 9957l0 166 138 0 0 914c-119,3 -138,-5 -138,111 0,115 34,55 360,55 97,0 194,60 194,-83 0,-155 -166,-11 -166,-166 0,-208 -35,-566 61,-686 145,-181 520,-172 520,104l0 665c-146,3 -138,-1 -138,166l554 0c0,-154 17,-163 -139,-166 0,-427 99,-1136 -498,-1136 -247,0 -190,123 -398,69 -109,-28 -227,-13 -350,-13z"/>
   <path class="fil0 str0" d="M7450 8211c0,523 692,274 692,637 0,134 -191,111 -305,111 -303,0 -62,-248 -415,-166 0,584 2,326 265,372 142,24 25,44 289,44 234,0 443,-154 443,-388 0,-499 -720,-348 -720,-610 0,-162 478,-166 498,83 228,0 194,42 194,-387l-260 9c-136,-25 1,-37 -266,-37 -208,0 -415,126 -415,332z"/>
   <path class="fil0 str0" d="M4763 5635c88,2 138,-9 138,83l0 914c0,157 -92,-7 -138,167 94,53 250,27 360,27l0 -111 -111 0 0 -554 637 0c0,566 44,550 -139,554l0 111c60,0 263,8 306,-3 52,-14 93,-13 66,-70 -29,-61 -37,-36 -122,-38l0 -1080 111 0 0 -83 -361 0 0 83c173,4 139,-15 139,416l-637 0 -28 -388c74,-35 30,-25 139,-28l0 -83 -360 0 0 83z"/>
   <path class="fil0 str0" d="M7394 5968c472,0 421,775 28,775 -416,0 -423,-775 -28,-775zm-305 55c-4,-177 -87,-164 -193,-111 55,138 110,-7 110,139l0 914c0,84 -32,76 -110,83l0 83c67,14 236,33 304,0l0 -83c-99,-8 -111,27 -111,-333 101,27 236,216 508,93 413,-188 272,-1087 -287,-927 -143,41 -120,74 -221,142z"/>
   <path class="fil0 str0" d="M8114 6328c0,-411 637,-583 637,83 0,73 -52,177 -85,219 -176,224 -552,118 -552,-302zm28 -305c-4,-6 -6,-24 -7,-20 -22,64 27,-119 -104,-119 -144,0 -35,-9 -111,28 52,127 -10,-12 54,58 35,38 57,-39 57,81l0 914c0,84 -32,76 -111,83l0 83c69,28 135,0 305,0l0 -83 -111 0 0 -360c459,483 982,-215 643,-671 -124,-168 -391,-213 -556,-73 -44,37 -36,17 -59,79z"/>
   <path class="fil0 str0" d="M6369 6743c-377,0 -372,-498 0,-498 365,0 365,498 0,498zm-277 -720c123,57 284,-162 489,10 63,53 65,105 65,212 -732,-388 -872,581 -360,581 349,0 214,-36 388,-83l0 83c120,0 136,14 222,-27 -38,-103 -56,-49 -139,-84 0,-611 85,-831 -443,-831 -65,0 -80,7 -133,34 -68,34 -68,27 -89,105z"/>
   <path class="fil0 str0" d="M8862 5912c50,123 -9,3 70,69 121,102 318,701 318,707 0,99 -79,309 -152,374 -94,84 -57,-14 -97,97 77,43 117,27 249,27 172,0 7,-91 -28,-138 66,-76 71,-149 119,-269 44,-110 69,-188 115,-301l167 -414c40,-90 16,-87 126,-96l0 -84c-452,0 -187,33 -243,225 -42,143 -138,292 -173,440l-249 -581c349,-30 -149,-145 -222,-56z"/>
  </g>
 </g>
</svg>
