<?xml version="1.0" encoding="UTF-8"?>
<!DOCTYPE svg PUBLIC "-//W3C//DTD SVG 1.0//EN" "http://www.w3.org/TR/2001/REC-SVG-20010904/DTD/svg10.dtd">
<!-- Creator: CorelDRAW X7 -->
<svg xmlns="http://www.w3.org/2000/svg" xml:space="preserve" width="210mm" height="297mm" version="1.0" style="shape-rendering:geometricPrecision; text-rendering:geometricPrecision; image-rendering:optimizeQuality; fill-rule:evenodd; clip-rule:evenodd"
viewBox="0 0 21000 29700"
 xmlns:xlink="http://www.w3.org/1999/xlink">
 <defs>
  <style type="text/css">
   <![CDATA[
    .fil0 {fill:#2B2A29}
   ]]>
  </style>
 </defs>
 <g id="Layer_x0020_1">
  <metadata id="CorelCorpID_0Corel-Layer"/>
  <path class="fil0" d="M8584 14932c-47,-8 -66,-55 -159,-99 -44,-21 -25,-3 -56,-38 12,-24 10,-16 84,-51 33,-16 56,-32 86,-55 36,-27 128,-110 163,-117 3,94 -75,315 -118,360zm-275 -734c-33,229 -189,461 -320,608 -78,87 -80,277 -5,362 59,67 -25,116 -49,31 -43,-150 -59,-488 -52,-650 7,-165 72,-199 73,-395 1,-127 44,-82 72,-150 19,-47 -6,-61 33,-82 107,-58 290,-14 248,276zm-569 562c-84,-9 -471,-715 -297,-816 54,-32 176,-55 209,17 18,39 15,65 49,101 49,50 48,16 41,119 -7,104 -23,175 -21,290 1,96 22,176 19,289zm2521 -702c39,-100 30,-213 73,-313 29,-66 34,-56 53,-139 48,-207 161,-158 338,-244 88,-42 165,-180 198,-195 10,27 -19,363 -19,452 1,282 81,521 172,774 24,68 147,302 148,321 -40,-15 -129,-171 -155,-224 -72,-147 -219,-572 -225,-739 -2,-55 6,-143 -38,-158 -35,30 -23,364 -19,439 12,215 113,511 226,688 30,47 61,89 95,133 43,57 102,70 119,100 -9,239 -566,375 -817,335 -2,-50 -19,-691 -99,-384 -48,187 -74,333 -214,439 -288,218 -311,-757 -507,-727l34 675c-171,6 -326,-135 -410,-248 -108,-146 -390,-815 -247,-954 358,-347 318,-431 535,-88 30,47 15,74 51,87 31,-113 59,-263 83,-382 17,-88 35,-93 112,-127 38,-17 132,-50 179,-51 164,-3 327,-14 315,160 -4,59 -83,366 19,370zm1153 -1142c6,231 -247,246 -328,98 -28,-52 -33,-213 30,-251 2,86 -16,146 23,214 29,51 88,91 149,44 152,-114 7,-290 36,-333 44,21 89,157 90,228zm-2794 -183c31,9 20,19 35,51 14,32 13,9 17,61 3,35 6,123 -6,154 -25,66 -122,114 -214,102 -118,-15 -174,-201 -71,-362l36 -45c21,36 -6,46 -18,88 -64,212 153,356 220,160 23,-68 1,-137 1,-209zm3467 1449c68,75 370,208 378,289 -57,27 -215,29 -298,27 -195,-4 -128,-111 -208,-112 -48,93 124,232 169,273 233,214 500,141 687,233 74,35 214,147 221,236 -237,29 -406,33 -626,-22 -102,-25 -270,-100 -339,-180 -71,-82 -48,-6 -88,8 -214,-240 -376,-440 -449,-815 -38,-194 -54,-352 -62,-570 -9,-242 35,-379 34,-598 -2,-295 -165,-455 -49,-515 59,-31 56,12 82,-79 63,-222 -1,-270 -32,-393 -20,-80 -50,-150 -92,-230 -72,-137 -66,-34 -75,-241 -4,-96 -40,-166 -83,-233 -30,-47 24,-206 49,-217 3,4 63,327 67,358 18,149 73,168 175,237 9,90 -58,135 -20,272 22,78 80,126 119,201 73,142 -188,416 -194,431 223,111 152,638 205,926 31,167 75,287 132,432 28,72 183,316 241,329 -4,-61 -150,-344 -141,-520 114,-9 81,140 101,232 30,143 0,135 96,241zm-3157 -2789c-17,-158 145,-351 312,-362 145,-9 197,-7 292,56 35,22 154,119 118,192 -42,-17 -125,-122 -330,-122 -122,0 -324,83 -340,184 66,0 80,-38 125,-72 37,-27 60,10 143,0 43,-6 272,-103 278,-4 -6,2 -143,12 -163,13 -103,6 -392,116 -435,115zm769 821c-68,9 -122,90 -126,182 -79,47 -62,73 -187,69l-70 -150c80,-31 79,82 187,2 146,-108 201,-210 503,-184 165,14 214,93 307,160 97,70 245,55 282,-72 -241,-16 -124,-23 -265,-156 -146,-139 -226,-115 -250,-173 131,-8 136,71 185,49 -5,-67 -102,-94 -141,-123 30,-21 65,-23 85,-60 13,-24 7,-30 19,-51 15,-25 -7,0 17,-19 0,0 12,-3 19,-10 6,-129 -86,-120 -72,-325 52,13 212,83 259,0 -14,-36 -162,-31 -190,-118l123 -25c42,28 -3,19 51,47l206 85c100,38 210,155 226,157 93,-42 44,-123 -8,-173 -81,-75 -75,-70 -170,-120 -244,-129 -381,-2 -462,-12 -14,-178 350,-231 499,-121 152,112 160,225 237,325l88 110 35 -41c3,86 18,187 11,282 -5,64 -100,180 7,192 22,-13 62,-226 150,-175 -43,79 -58,58 -89,166 -12,39 -18,61 -35,98 -15,31 -33,51 -33,52 -31,223 138,251 75,417 -61,5 9,-24 -39,-59 -16,-12 -39,-7 -64,-7 -15,42 -12,165 -23,227 -10,59 -39,140 -100,159l-17 -210c-88,-33 -56,34 -62,106 -6,66 -43,94 -83,127 -93,77 -165,91 -312,94 -68,1 -134,1 -202,-1 -93,-1 -110,-22 -175,-28 -89,-8 -386,-2 -403,-5l26 -143 77 40 68 -246c66,-13 384,-159 318,-241 -26,-33 -215,-21 -271,-19 -159,4 -143,-61 -211,-79zm111 -1452c133,37 122,126 3,-208 -121,-337 153,-667 330,-541 107,76 127,147 266,209 59,26 132,30 152,83 30,78 26,101 80,159 43,48 97,73 129,108 149,162 324,588 316,842 -20,-25 -70,-218 -106,-288 -41,-83 -87,-176 -154,-241 -113,-111 -349,-256 -564,-197 -235,64 -277,212 -311,476 -79,623 210,362 255,491 -66,41 -174,-29 -214,71l61 95 -197 13c-9,89 14,15 59,77 -235,10 -48,-43 -132,-76 -65,-26 -64,23 -171,-42 -28,-207 115,-220 290,-220 9,-62 -13,-608 -23,-656 -16,-68 -51,-108 -69,-155zm845 -738c55,-34 86,-64 185,-51 174,25 273,268 291,397 -46,-5 -45,-30 -107,-87 -94,-88 -146,-168 -228,-117 -24,15 -108,46 -142,46l1 -188zm-1871 286c-65,-63 -207,-192 -188,-315 148,-11 258,-13 338,68 27,27 199,184 200,201 -97,46 -76,16 -170,90 -55,44 -147,-12 -180,-44zm363 -825c179,-13 262,124 337,152 76,28 119,7 122,130 -49,-2 -53,-22 -83,-39 -36,-22 -174,-71 -184,-93 -48,-6 -83,-10 -131,-4 -50,7 -52,-3 -110,-4 -37,-58 -48,-135 49,-142zm692 32c20,-45 61,-260 189,-207 135,56 120,126 120,269 0,139 -47,216 -185,223 -219,12 -137,-185 -176,-242l-96 64 40 -132c30,-3 77,19 108,25zm849 163c-1,-132 -251,-201 -264,-228 9,-15 181,-57 320,101 87,100 92,195 76,349l-221 17c-5,-114 38,-143 48,-173 -33,-47 -27,13 -36,-49l77 -17zm-5643 6509l0 35c64,-7 589,-285 791,-322l431 -132c84,-27 370,-111 460,-110 -20,39 -210,143 -252,171 -138,91 -618,505 -631,607 0,0 237,-128 263,-143 173,-101 738,-343 909,-336 -13,20 -376,255 -440,306 -82,66 -344,290 -366,375 7,1 306,-159 378,-186 682,-256 1837,-399 2505,-86 133,62 257,155 381,205 157,63 275,108 434,164 344,122 705,71 1011,-44 365,-137 867,-691 1509,-854 137,-35 324,-88 488,-103 55,-5 550,-33 556,-36 -39,-87 -744,-79 -893,-70 -132,7 -310,35 -422,67 -65,19 -137,23 -205,44 -49,15 -146,53 -198,56 0,-61 197,-220 246,-265 50,-45 76,-78 132,-121 59,-46 75,-81 94,-161 281,35 340,54 558,148 158,68 421,87 613,110 130,15 456,108 561,156 77,36 183,64 263,97 54,22 212,101 253,103 -32,-57 -389,-221 -474,-258 -165,-72 -381,-138 -571,-168 -153,-24 -135,-41 -208,-160 -109,-180 -46,-227 -292,-445 -121,-107 -188,-61 -263,-107 -43,-37 -16,-299 -253,-431l-216 -127c-106,-76 -126,-37 -136,-207 -14,-250 0,-411 -56,-630 -41,-161 -63,-131 -108,-235 -184,-420 -43,-628 -118,-912 -44,-166 -260,-225 -179,-492 49,-165 -72,-123 -125,-191 -7,-8 -72,-247 -76,-270 -16,-103 -14,-203 -40,-299 -13,-48 -10,-104 -23,-144 -23,-74 -52,-54 -82,-94l-21 -293c93,9 183,113 367,76 121,-24 237,-70 313,-143 -7,-5 -403,-58 -464,-73 -265,-63 -472,-353 -465,-630 7,-210 132,-372 133,-408 -44,-1 -117,70 -164,108 -48,38 -116,167 -121,170 -49,-1 -154,-123 -264,-140 -194,-29 -251,71 -329,82 -137,-317 -464,-314 -656,-130 -81,77 -76,223 -99,244 -12,12 -237,-229 -452,-110 -179,100 -134,285 -160,490 -49,4 -378,-104 -487,101 -38,73 -53,157 -90,226 -23,44 -27,64 -46,114 -15,40 -18,124 -27,138 -14,39 -129,56 -169,193 -20,68 -47,226 -64,304 -24,114 31,254 -14,354 -78,174 -26,154 -18,311 -22,24 -177,113 -217,287 -36,160 2,311 5,477 5,271 -32,215 -142,363 -81,109 -115,209 -124,383 -2,6 -315,269 -197,582 28,72 64,64 48,140 -15,72 -34,100 -22,191 5,32 25,139 35,169 10,27 58,128 60,144 -37,55 -150,91 -207,143 -135,124 -92,182 -123,240 -124,20 -442,-66 -707,98 -78,48 -151,138 -163,252 -4,43 -83,305 -99,322 -7,5 -282,63 -343,96 -62,35 -87,34 -141,78 -138,112 -190,109 -368,299 -39,42 -63,75 -103,116 -37,38 -44,114 -104,131z"/>
  <path class="fil0" d="M9945 10119c-50,111 -227,531 35,508 201,-18 77,-485 -35,-508z"/>
  <path class="fil0" d="M9674 11713c53,93 142,84 212,30 2,-42 9,-50 -17,-77 -36,-37 -160,-51 -195,47z"/>
 </g>
</svg>
