<?xml version="1.0" encoding="UTF-8"?>
<svg xmlns="http://www.w3.org/2000/svg" xmlns:xlink="http://www.w3.org/1999/xlink" width="2501" height="2501" viewBox="0 0 2501 2501">
<path fill-rule="evenodd" fill="rgb(39.988708%, 39.988708%, 39.988708%)" fill-opacity="1" d="M 1215.371094 979.578125 L 825.519531 1297.300781 C 811.980469 1308.328125 804.839844 1323.359375 804.839844 1340.828125 L 804.839844 1694.601562 C 804.839844 1725.527344 830.066406 1750.753906 860.992188 1750.753906 L 1152.660156 1750.753906 L 1152.660156 1533.496094 L 1349.019531 1533.496094 L 1349.019531 1750.753906 L 1640.691406 1750.753906 C 1671.609375 1750.753906 1696.839844 1725.527344 1696.839844 1694.601562 L 1696.839844 1340.828125 C 1696.839844 1323.359375 1689.699219 1308.328125 1676.160156 1297.300781 L 1286.308594 979.578125 C 1265.441406 962.570312 1236.238281 962.570312 1215.371094 979.578125 "/>
<path fill-rule="evenodd" fill="rgb(39.988708%, 39.988708%, 39.988708%)" fill-opacity="1" d="M 1215.371094 762.328125 L 704.554688 1178.628906 C 691.792969 1189.03125 684.785156 1202.859375 683.949219 1219.308594 C 683.113281 1235.75 688.683594 1250.21875 700.324219 1261.859375 L 702.222656 1263.761719 C 722.675781 1284.210938 754.976562 1285.859375 777.398438 1267.578125 L 1215.371094 910.640625 C 1236.238281 893.628906 1265.441406 893.628906 1286.308594 910.640625 L 1724.28125 1267.578125 C 1746.699219 1285.859375 1779 1284.210938 1799.460938 1263.761719 L 1801.359375 1261.859375 C 1813 1250.21875 1818.558594 1235.75 1817.730469 1219.308594 C 1816.890625 1202.859375 1809.890625 1189.03125 1797.121094 1178.628906 L 1286.308594 762.328125 C 1265.441406 745.320312 1236.238281 745.320312 1215.371094 762.328125 "/>
<path fill-rule="evenodd" fill="rgb(39.988708%, 39.988708%, 39.988708%)" fill-opacity="1" d="M 1495.25 878.351562 L 1495.25 1061.171875 L 1500.789062 1061.171875 L 1500.789062 1067.96875 L 1555.359375 1067.96875 C 1586.28125 1067.96875 1611.5 1042.738281 1611.5 1011.820312 L 1611.5 878.351562 C 1611.5 847.429688 1586.28125 822.199219 1555.351562 822.199219 L 1551.398438 822.199219 C 1520.480469 822.199219 1495.25 847.429688 1495.25 878.351562 "/>
</svg>
