<?xml version="1.0" encoding="UTF-8"?>
<svg xmlns="http://www.w3.org/2000/svg" xmlns:xlink="http://www.w3.org/1999/xlink" width="2501" height="2501" viewBox="0 0 2501 2501">
<path fill-rule="evenodd" fill="rgb(39.988708%, 39.988708%, 39.988708%)" fill-opacity="1" d="M 1215.371094 771.761719 L 704.554688 1188.058594 C 691.789062 1198.460938 684.785156 1212.300781 683.949219 1228.738281 C 683.109375 1245.179688 688.679688 1259.648438 700.320312 1271.289062 L 702.222656 1273.191406 C 722.675781 1293.648438 754.976562 1295.289062 777.398438 1277.011719 L 1215.371094 920.070312 C 1236.238281 903.058594 1265.441406 903.058594 1286.308594 920.070312 L 1724.28125 1277.019531 C 1746.699219 1295.289062 1779 1293.648438 1799.460938 1273.191406 L 1801.359375 1271.289062 C 1813 1259.648438 1818.570312 1245.179688 1817.730469 1228.738281 C 1816.890625 1212.300781 1809.890625 1198.46875 1797.128906 1188.058594 L 1286.308594 771.761719 C 1265.441406 754.75 1236.238281 754.75 1215.371094 771.761719 Z M 1552.699219 1267.011719 L 1552.699219 1621.0625 L 945.652344 1621.0625 L 945.652344 1194.789062 L 825.390625 1292.800781 L 825.390625 1707.898438 C 825.390625 1726.277344 840.433594 1741.320312 858.8125 1741.320312 L 1639.539062 1741.320312 C 1657.921875 1741.320312 1672.96875 1726.277344 1672.96875 1707.898438 L 1672.96875 1298.171875 L 1552.699219 1200.160156 L 1552.699219 1267.011719 "/>
</svg>
